<svg width="512" height="512" viewBox="0 0 512 512" fill="none" xmlns="http://www.w3.org/2000/svg">
<circle cx="256" cy="256" r="250" fill="#28242E"/>
<path d="M161.189 366.08C140.656 366.08 122.923 361.6 107.989 352.64C93.2427 343.493 82.0427 330.987 74.3894 315.12C66.736 299.253 62.9094 281.333 62.9094 261.36C62.9094 238.4 67.296 218.707 76.0694 202.28C85.0294 185.853 97.6294 173.44 113.869 165.04C130.109 156.64 149.056 152.44 170.709 152.44C191.056 152.44 213.923 155.333 239.309 161.12L236.229 213.2H207.949L200.389 177.36C198.523 175.493 194.976 173.813 189.749 172.32C184.523 170.64 177.709 169.8 169.309 169.8C151.016 169.8 136.643 177.267 126.189 192.2C115.736 206.947 110.509 228.32 110.509 256.32C110.509 283.76 114.989 305.973 123.949 322.96C132.909 339.76 146.536 348.16 164.829 348.16C172.296 348.16 179.296 347.227 185.829 345.36C192.363 343.493 197.309 341.067 200.669 338.08V277.88L170.989 275.08V256.32H256.109V275.08L241.269 277.6V351.8C237.349 351.987 230.256 353.573 219.989 356.56C208.043 359.733 197.776 362.067 189.189 363.56C180.789 365.24 171.456 366.08 161.189 366.08ZM294.509 175.96L272.669 172.32V154.96H314.389C320.735 154.96 328.949 154.587 339.029 153.84C341.455 153.653 344.349 153.467 347.709 153.28C351.069 153.093 354.989 153 359.469 153C387.655 153 407.349 157.013 418.549 165.04C429.935 172.88 435.629 184.64 435.629 200.32C435.629 214.133 431.429 225.707 423.029 235.04C414.815 244.187 403.989 249.787 390.549 251.84C409.029 251.653 423.495 255.853 433.949 264.44C444.589 273.027 449.909 284.973 449.909 300.28C449.909 319.693 443.095 335.28 429.469 347.04C415.842 358.8 393.069 364.68 361.149 364.68C352.749 364.68 345.002 364.4 337.909 363.84C336.042 363.84 332.869 363.653 328.389 363.28C323.909 363.093 319.335 363 314.669 363H272.389V346.2L294.509 343.4V175.96ZM335.109 245.68C337.162 245.867 341.362 245.96 347.709 245.96H360.869C372.255 245.96 380.749 242.413 386.349 235.32C391.949 228.227 394.749 218.24 394.749 205.36C394.749 193.04 391.855 184.08 386.069 178.48C380.282 172.88 370.669 170.08 357.229 170.08C353.682 170.08 346.309 170.453 335.109 171.2V245.68ZM335.109 344.52C339.402 346.2 347.615 347.04 359.749 347.04C375.615 347.04 387.095 343.307 394.189 335.84C401.282 328.373 404.829 317.547 404.829 303.36C404.829 289.733 401.562 280.027 395.029 274.24C388.682 268.267 378.509 265.28 364.509 265.28C348.829 265.28 339.029 265.467 335.109 265.84V344.52Z" fill="#FBF5F3"/>
</svg>
